HIERARCHY
ROOT Hips
{
	OFFSET 0.00000 0.00000 0.00000
	CHANNELS 6 Xposition Yposition Zposition Zrotation Yrotation Xrotation 
	JOINT LHipJoint
	{
		OFFSET 0 0 0
		CHANNELS 3 Zrotation Yrotation Xrotation
		JOINT LeftUpLeg
		{
			OFFSET 1.28366 -1.58472 0.87544
			CHANNELS 3 Zrotation Yrotation Xrotation
			JOINT LeftLeg
			{
				OFFSET 2.18587 -6.00562 0.00000
				CHANNELS 3 Zrotation Yrotation Xrotation
				JOINT LeftFoot
				{
					OFFSET 2.39085 -6.56880 0.00000
					CHANNELS 3 Zrotation Yrotation Xrotation
					JOINT LeftToeBase
					{
						OFFSET 0.12003 -0.32979 2.03101
						CHANNELS 3 Zrotation Yrotation Xrotation
						End Site
						{
							OFFSET 0.00000 -0.00000 1.04074
						}
					}
				}
			}
		}
	}
	JOINT RHipJoint
	{
		OFFSET 0 0 0
		CHANNELS 3 Zrotation Yrotation Xrotation
		JOINT RightUpLeg
		{
			OFFSET -1.21795 -1.58472 0.87544
			CHANNELS 3 Zrotation Yrotation Xrotation
			JOINT RightLeg
			{
				OFFSET -2.22714 -6.11902 0.00000
				CHANNELS 3 Zrotation Yrotation Xrotation
				JOINT RightFoot
				{
					OFFSET -2.40306 -6.60235 0.00000
					CHANNELS 3 Zrotation Yrotation Xrotation
					JOINT RightToeBase
					{
						OFFSET -0.15519 -0.42640 1.91430
						CHANNELS 3 Zrotation Yrotation Xrotation
						End Site
						{
							OFFSET -0.00000 -0.00000 0.99082
						}
					}
				}
			}
		}
	}
	JOINT LowerBack
	{
		OFFSET 0 0 0
		CHANNELS 3 Zrotation Yrotation Xrotation
		JOINT Spine
		{
			OFFSET 0.01180 1.76430 -0.06387
			CHANNELS 3 Zrotation Yrotation Xrotation
			JOINT Spine1
			{
				OFFSET -0.00388 1.74651 0.09536
				CHANNELS 3 Zrotation Yrotation Xrotation
				JOINT Neck
				{
					OFFSET 0 0 0
					CHANNELS 3 Zrotation Yrotation Xrotation
					JOINT Neck1
					{
						OFFSET 0.04111 1.46174 0.14397
						CHANNELS 3 Zrotation Yrotation Xrotation
						JOINT Head
						{
							OFFSET 0.00502 1.44580 -0.31711
							CHANNELS 3 Zrotation Yrotation Xrotation
							End Site
							{
								OFFSET -0.00395 1.49251 -0.12327
							}
						}
					}
				}
				JOINT LeftShoulder
				{
					OFFSET 0 0 0
					CHANNELS 3 Zrotation Yrotation Xrotation
					JOINT LeftArm
					{
						OFFSET 2.70917 1.34870 -0.15417
						CHANNELS 3 Zrotation Yrotation Xrotation
						JOINT LeftForeArm
						{
							OFFSET 4.46610 -0.00000 -0.00000
							CHANNELS 3 Zrotation Yrotation Xrotation
							JOINT LeftHand
							{
								OFFSET 3.41414 -0.00000 0.00000
								CHANNELS 3 Zrotation Yrotation Xrotation
								JOINT LeftFingerBase
								{
									OFFSET 0 0 0
									CHANNELS 3 Zrotation Yrotation Xrotation
									JOINT LeftHandIndex1
									{
										OFFSET 0.32830 -0.00000 0.00000
										CHANNELS 3 Zrotation Yrotation Xrotation
										End Site
										{
											OFFSET 0.26468 -0.00000 0.00000
										}
									}
								}
								JOINT LThumb
								{
									OFFSET 0 0 0
									CHANNELS 3 Zrotation Yrotation Xrotation
									End Site
									{
										OFFSET 0.26872 -0.00000 0.26872
									}
								}
							}
						}
					}
				}
				JOINT RightShoulder
				{
					OFFSET 0 0 0
					CHANNELS 3 Zrotation Yrotation Xrotation
					JOINT RightArm
					{
						OFFSET -3.06316 1.13725 -0.10883
						CHANNELS 3 Zrotation Yrotation Xrotation
						JOINT RightForeArm
						{
							OFFSET -4.40431 -0.00000 0.00000
							CHANNELS 3 Zrotation Yrotation Xrotation
							JOINT RightHand
							{
								OFFSET -3.04688 -0.00000 0.00000
								CHANNELS 3 Zrotation Yrotation Xrotation
								JOINT RightFingerBase
								{
									OFFSET 0 0 0
									CHANNELS 3 Zrotation Yrotation Xrotation
									JOINT RightHandIndex1
									{
										OFFSET -0.50049 -0.00000 0.00000
										CHANNELS 3 Zrotation Yrotation Xrotation
										End Site
										{
											OFFSET -0.40351 -0.00000 0.00000
										}
									}
								}
								JOINT RThumb
								{
									OFFSET 0 0 0
									CHANNELS 3 Zrotation Yrotation Xrotation
									End Site
									{
										OFFSET -0.40967 -0.00000 0.40967
									}
								}
							}
						}
					}
				}
			}
		}
	}
}
MOTION
Frames: 10
Frame Time: .0083333
38.8525 14.2313 -6.3265 12.9841 34.2068 15.0706 0.0000 0.0000 0.0000 -20.9846 7.7252 -4.8803 7.9406 16.0754 52.3486 -0.1515 -6.9078 1.9044 2.8712 -10.4836 -30.5573 0.0000 0.0000 0.0000 26.0784 12.9512 -41.6442 -6.3686 -14.7763 46.4437 -0.5277 -2.1206 -14.6562 -3.0056 -10.7041 31.2884 -7.9243 1.5553 -4.0094 -2.0864 2.1333 -7.6225 2.2011 1.4954 -5.9537 -8.4674 -10.4635 -13.4117 13.8654 -15.5297 17.3461 4.0668 -6.5099 9.4831 0.0000 0.0000 0.0000 -12.6581 -14.8089 66.4271 135.1460 -50.6968 -97.8743 -0.0000 0.0000 -5.7096 52.2225 -14.9506 -18.4107 -7.1250 0.0000 -0.0000 15.7462 7.1379 -14.2298 0.0000 0.0000 0.0000 48.7726 43.1368 38.6183 -55.6501 55.0348 -30.7480 0.0000 -0.0000 -57.3874 -42.5730 -18.2802 16.0747 7.1250 -0.0000 -0.0000 -15.4279 -53.4751 3.2766
38.9790 14.1739 -6.1780 12.4188 34.1878 14.2137 0.0000 0.0000 0.0000 -19.5826 6.1762 -6.4997 9.3774 17.0445 57.3863 -0.3053 -9.8073 4.8366 2.2816 -9.4296 -27.1485 0.0000 0.0000 0.0000 26.7659 13.0021 -40.8559 -6.6912 -15.0662 47.6964 -0.5267 -1.7362 -14.4482 -3.5835 -11.5846 34.2777 -7.4157 1.5189 -3.4841 -2.0080 2.0356 -7.4865 1.9914 1.4169 -6.0711 -8.5471 -10.5273 -13.4212 13.8458 -15.5922 17.2835 4.0610 -6.5495 9.4756 -0.0000 -0.0000 0.0000 -13.2614 -15.7356 66.1993 133.6178 -51.4279 -96.6856 -0.0000 0.0000 -6.9971 51.7804 -13.8166 -16.8707 -7.1250 0.0000 -0.0000 15.7755 8.9376 -13.6761 -0.0000 -0.0000 0.0000 47.5922 41.9701 39.5812 -59.7248 56.2362 -34.1122 0.0000 -0.0000 -55.6173 -43.0007 -17.5954 15.7431 7.1250 -0.0000 -0.0000 -15.8141 -52.7280 3.0691
39.1025 14.1081 -6.0341 11.7549 34.1401 13.2106 0.0000 0.0000 0.0000 -18.0984 4.4907 -8.1441 10.8933 17.8825 62.4347 -0.4847 -12.4659 7.2209 1.6988 -8.2082 -23.3484 0.0000 0.0000 0.0000 27.5246 13.0979 -39.9919 -7.0618 -15.3837 49.1077 -0.5703 -1.4577 -14.8663 -3.9688 -12.1188 36.1534 -6.8601 1.5007 -2.7895 -1.8802 1.9550 -7.3413 1.8018 1.3475 -6.2796 -8.5991 -10.5754 -13.3543 13.8043 -15.6260 17.1444 4.0511 -6.5830 9.4194 0.0000 0.0000 0.0000 -14.0194 -16.7596 65.9368 131.8572 -52.2185 -95.3014 -0.0000 0.0000 -8.3631 51.2631 -12.5383 -15.1426 -7.1250 0.0000 -0.0000 15.7886 10.9644 -13.0145 0.0000 0.0000 0.0000 46.4086 40.8606 40.5505 -63.9075 57.2643 -37.6107 0.0000 -0.0000 -53.5795 -43.2975 -16.7486 15.1916 7.1250 -0.0000 -0.0000 -16.0112 -51.7388 2.7150
39.2227 14.0361 -5.8949 10.9307 34.0326 12.0424 0.0000 0.0000 0.0000 -16.4834 2.7734 -9.8254 12.4487 18.5739 67.4040 -0.6788 -14.7414 8.8318 1.2120 -6.9839 -19.6677 0.0000 0.0000 0.0000 28.4447 13.2097 -39.0447 -7.4386 -15.6904 50.5143 -0.6434 -1.2957 -15.6750 -4.1449 -12.3508 36.9845 -6.2244 1.4992 -1.9461 -1.6865 1.8975 -7.1877 1.6321 1.2877 -6.5682 -8.6436 -10.5963 -13.2147 13.7875 -15.6221 16.9342 4.0578 -6.6024 9.3226 -0.0000 0.0000 0.0000 -14.9251 -17.8409 65.6397 129.8542 -53.0541 -93.7094 -0.0000 0.0000 -9.7531 50.6737 -11.1316 -13.2602 -7.1250 0.0000 -0.0000 15.7798 13.1857 -12.2482 -0.0000 0.0000 0.0000 45.2545 39.8149 41.5423 -68.1569 58.1181 -41.2028 0.0000 -0.0000 -51.2938 -43.5203 -15.7469 14.4518 7.1250 -0.0000 -0.0000 -16.0856 -50.5267 2.2411
39.3402 13.9618 -5.7596 9.9289 33.8350 10.7376 0.0000 0.0000 0.0000 -14.7198 1.1092 -11.5756 14.0031 19.1150 72.2139 -0.8706 -16.5333 9.4631 0.8761 -5.9673 -16.6895 0.0000 0.0000 0.0000 29.5561 13.3203 -38.0057 -7.7956 -15.9669 51.8232 -0.7362 -1.2076 -16.6894 -4.1648 -12.3766 37.0774 -5.4971 1.5114 -1.0179 -1.4249 1.8710 -7.0258 1.4792 1.2397 -6.9011 -8.6607 -10.5917 -13.0329 13.7866 -15.5870 16.6789 4.0727 -6.6077 9.1982 -0.0000 0.0000 0.0000 -15.9668 -18.9471 65.3127 127.5996 -53.9189 -91.8972 -0.0000 0.0000 -11.0967 50.0208 -9.6063 -11.2561 -7.1250 0.0000 -0.0000 15.7471 15.5737 -11.3855 -0.0000 0.0000 0.0000 44.1497 38.8322 42.5560 -72.4279 58.8005 -44.8434 0.0000 -0.0000 -48.8047 -43.7058 -14.6024 13.5483 7.1250 -0.0000 -0.0000 -16.0817 -49.1117 1.6699
39.4555 13.8875 -5.6278 8.7650 33.5253 9.3714 0.0000 0.0000 0.0000 -12.8133 -0.4447 -13.4636 15.5197 19.5118 76.7974 -1.0313 -17.7571 8.9712 0.6986 -5.3429 -14.8891 0.0000 0.0000 0.0000 30.8402 13.4409 -36.9049 -8.1206 -16.2073 52.9960 -0.8334 -1.0914 -17.6747 -4.1690 -12.3819 37.0967 -4.6896 1.5333 -0.0894 -1.1004 1.8812 -6.8704 1.3452 1.2064 -7.2459 -8.6671 -10.5639 -12.8253 13.8114 -15.5264 16.4100 4.1001 -6.5995 9.0634 -0.0000 -0.0000 0.0000 -17.1300 -20.0503 64.9730 125.0763 -54.7981 -89.8463 -0.0000 0.0000 -12.3381 49.2783 -8.0863 -9.2808 -7.1250 0.0000 -0.0000 15.6383 17.9427 -10.4577 -0.0000 -0.0000 0.0000 43.1047 37.8842 43.5906 -76.7008 59.3210 -48.5088 0.0000 -0.0000 -46.1723 -43.9015 -13.3188 12.5003 7.1250 -0.0000 -0.0000 -16.0502 -47.5044 1.0167
39.5689 13.8141 -5.4987 7.5066 33.1001 8.0398 0.0000 0.0000 0.0000 -10.8089 -1.8664 -15.5455 16.9665 19.7779 81.0991 -1.1145 -18.3022 7.3936 0.6552 -5.1773 -14.4149 0.0000 0.0000 0.0000 32.2290 13.5833 -35.7881 -8.4148 -16.4160 54.0433 -0.9381 -0.9053 -18.6503 -4.1645 -12.3761 37.0758 -3.8511 1.5654 0.7562 -0.7314 1.9331 -6.7321 1.2392 1.1923 -7.5671 -8.6930 -10.5243 -12.5972 13.8691 -15.4550 16.1534 4.1443 -6.5846 8.9330 -0.0000 -0.0000 0.0000 -18.3998 -21.1506 64.6397 122.3251 -55.6579 -87.5862 -0.0000 0.0000 -13.4981 48.4379 -6.5686 -7.3514 -7.1250 0.0000 -0.0000 15.4421 20.2841 -9.4768 -0.0000 -0.0000 0.0000 42.1103 36.9230 44.6231 -80.9716 59.6897 -52.1893 0.0000 -0.0000 -43.4654 -44.1678 -11.8764 11.3049 7.1250 -0.0000 -0.0000 -16.0448 -45.6845 0.2783
39.6805 13.7437 -5.3713 6.2399 32.5757 6.8369 0.0000 0.0000 0.0000 -8.7719 -3.1786 -17.8714 18.3151 19.9318 85.0683 -1.0695 -18.0086 5.1030 0.6760 -5.2574 -14.6443 0.0000 0.0000 0.0000 33.6299 13.7579 -34.7169 -8.6837 -16.5998 54.9896 -1.0440 -0.7021 -19.5772 -4.1590 -12.3691 37.0504 -3.0534 1.5836 1.4629 -0.3417 1.9899 -6.6137 1.1800 1.1830 -7.8341 -8.6843 -10.4600 -12.4177 13.9180 -15.3604 15.9630 4.1818 -6.5525 8.8278 -0.0000 -0.0000 0.0000 -19.7288 -22.1895 64.2834 119.3928 -56.4696 -85.1532 -0.0000 0.0000 -14.6330 47.4964 -5.0725 -5.5107 -7.1250 0.0000 -0.0000 15.1440 22.5567 -8.4678 -0.0000 -0.0000 0.0000 41.1919 35.9694 45.6786 -85.2299 59.9138 -55.8701 0.0000 -0.0000 -40.7562 -44.4354 -10.2965 9.9404 7.1250 -0.0000 -0.0000 -15.9957 -43.6586 -0.5443
39.7906 13.6776 -5.2439 5.0640 31.9752 5.8368 0.0000 0.0000 0.0000 -6.8049 -4.3752 -20.4456 19.5349 19.9948 88.6401 -0.8907 -16.8280 2.3956 0.7364 -5.4824 -15.2896 0.0000 0.0000 0.0000 34.9405 13.9570 -33.7411 -8.9345 -16.7654 55.8632 -1.1480 -0.4476 -20.4230 -4.1568 -12.3662 37.0402 -2.3591 1.5965 1.9962 0.0333 2.0528 -6.5251 1.1667 1.1824 -8.0378 -8.6620 -10.3848 -12.2720 13.9588 -15.2604 15.8511 4.2138 -6.5130 8.7530 0.0000 0.0000 0.0000 -21.1021 -23.1952 63.9296 116.3092 -57.2158 -82.5715 -0.0000 0.0000 -15.8126 46.4623 -3.6413 -3.8238 -7.1250 0.0000 -0.0000 14.7329 24.6884 -7.4708 0.0000 0.0000 0.0000 40.3371 34.9622 46.7386 -89.4824 59.9990 -59.5518 0.0000 -0.0000 -38.1006 -44.6946 -8.5813 8.3979 7.1250 -0.0000 -0.0000 -15.8935 -41.4223 -1.4433
39.8993 13.6168 -5.1152 4.0777 31.3340 5.0841 0.0000 0.0000 0.0000 -5.0294 -5.4845 -23.2381 20.5984 19.9914 91.7500 -0.6254 -14.8726 -0.3142 0.7898 -5.6731 -15.8387 0.0000 0.0000 0.0000 36.0617 14.1403 -32.8925 -9.1747 -16.9188 56.6922 -1.2489 -0.1260 -21.1833 -4.1490 -12.3561 37.0038 -1.8293 1.5967 2.3538 0.3573 2.0985 -6.4611 1.1978 1.1819 -8.1707 -8.6061 -10.2971 -12.1655 13.9841 -15.1532 15.8074 4.2349 -6.4649 8.7033 -0.0000 -0.0000 0.0000 -22.4901 -24.1587 63.5798 113.1495 -57.8750 -79.9050 -0.0000 0.0000 -17.1164 45.3660 -2.2601 -2.2873 -7.1250 0.0000 -0.0000 14.2283 26.6924 -6.5099 -0.0000 -0.0000 0.0000 39.5683 33.8999 47.8073 -93.7019 59.9482 -63.2054 0.0000 -0.0000 -35.5248 -44.9425 -6.7295 6.6702 7.1250 -0.0000 -0.0000 -15.7370 -38.9692 -2.4085
